<mxfile host="65bd71144e">
    <diagram id="3EtMpNawjj-bHfqPY-3U" name="Page-1">
        <mxGraphModel dx="1072" dy="568" grid="1" gridSize="10" guides="1" tooltips="1" connect="1" arrows="1" fold="1" page="1" pageScale="1" pageWidth="850" pageHeight="1100" math="0" shadow="0">
            <root>
                <mxCell id="0"/>
                <mxCell id="1" parent="0"/>
                <mxCell id="87" style="edgeStyle=none;html=1;exitX=1;exitY=0.3333333333333333;exitDx=0;exitDy=0;exitPerimeter=0;entryX=0;entryY=0.5;entryDx=0;entryDy=0;strokeColor=#FFFFFF;fontColor=#FFFFFF;" parent="1" source="2" target="86" edge="1">
                    <mxGeometry relative="1" as="geometry"/>
                </mxCell>
                <UserObject label="&lt;font color=&quot;#ffffff&quot;&gt;Employer&lt;/font&gt;" lucidchartObjectId="DuOlt.rtpj4f" id="2">
                    <mxCell style="html=1;overflow=block;blockSpacing=1;shape=umlActor;labelPosition=center;verticalLabelPosition=bottom;verticalAlign=top;whiteSpace=nowrap;fontSize=16.7;fontColor=#3a414a;spacing=0;strokeColor=#FFFFFF;strokeOpacity=100;rounded=1;absoluteArcSize=1;arcSize=9;strokeWidth=0.8;" parent="1" vertex="1">
                        <mxGeometry x="10" y="382.5" width="60" height="135" as="geometry"/>
                    </mxCell>
                </UserObject>
                <UserObject label="Gestion des &lt;br&gt;Suivies" lucidchartObjectId="ePOlaEobZ2qT" id="5">
                    <mxCell style="html=1;overflow=block;blockSpacing=1;whiteSpace=wrap;ellipse;fontSize=13;spacing=3.8;strokeColor=#3a414a;strokeOpacity=100;rounded=1;absoluteArcSize=1;arcSize=9;strokeWidth=0.8;" parent="1" vertex="1">
                        <mxGeometry x="390" y="292.5" width="120" height="90" as="geometry"/>
                    </mxCell>
                </UserObject>
                <UserObject label="Consulter les &#10;details des conteneurs" lucidchartObjectId="tPOlwa4yBzlA" id="6">
                    <mxCell style="html=1;overflow=block;blockSpacing=1;whiteSpace=wrap;ellipse;fontSize=13;spacing=3.8;strokeColor=#3a414a;strokeOpacity=100;rounded=1;absoluteArcSize=1;arcSize=9;strokeWidth=0.8;" parent="1" vertex="1">
                        <mxGeometry x="240" y="202.5" width="120" height="90" as="geometry"/>
                    </mxCell>
                </UserObject>
                <UserObject label="Arreter le suivi d' un conteneur " lucidchartObjectId="UQOlKw9u3dHT" id="7">
                    <mxCell style="html=1;overflow=block;blockSpacing=1;whiteSpace=wrap;ellipse;fontSize=13;spacing=3.8;strokeColor=#3a414a;strokeOpacity=100;rounded=1;absoluteArcSize=1;arcSize=9;strokeWidth=0.8;" parent="1" vertex="1">
                        <mxGeometry x="540" y="202.5" width="120" height="90" as="geometry"/>
                    </mxCell>
                </UserObject>
                <UserObject label="" lucidchartObjectId="vROlu2w4Edg5" id="8">
                    <mxCell style="html=1;jettySize=18;whiteSpace=wrap;fontSize=13;strokeColor=#FFFFFF;strokeOpacity=100;strokeWidth=0.8;rounded=1;arcSize=12;edgeStyle=orthogonalEdgeStyle;startArrow=none;endArrow=block;endFill=1;exitX=-0.003;exitY=0.5;exitPerimeter=0;entryX=0.5;entryY=1.004;entryPerimeter=0;" parent="1" source="5" target="6" edge="1">
                        <mxGeometry width="100" height="100" relative="1" as="geometry">
                            <Array as="points"/>
                        </mxGeometry>
                    </mxCell>
                </UserObject>
                <UserObject label="" lucidchartObjectId="k-JD9aQsmUo1" id="9">
                    <mxCell style="html=1;jettySize=18;whiteSpace=wrap;fontSize=13;strokeColor=#FFFFFF;strokeOpacity=100;strokeWidth=0.8;rounded=1;arcSize=12;edgeStyle=orthogonalEdgeStyle;startArrow=none;endArrow=block;endFill=1;exitX=1.003;exitY=0.5;exitPerimeter=0;entryX=0.5;entryY=1.004;entryPerimeter=0;" parent="1" source="5" target="7" edge="1">
                        <mxGeometry width="100" height="100" relative="1" as="geometry">
                            <Array as="points"/>
                        </mxGeometry>
                    </mxCell>
                </UserObject>
                <mxCell id="70" style="edgeStyle=none;html=1;exitX=0.5;exitY=0;exitDx=0;exitDy=0;entryX=0.5;entryY=1;entryDx=0;entryDy=0;strokeColor=#FFFFFF;fontColor=#FFFFFF;" parent="1" source="14" edge="1">
                    <mxGeometry relative="1" as="geometry">
                        <mxPoint x="333" y="570" as="targetPoint"/>
                    </mxGeometry>
                </mxCell>
                <mxCell id="72" style="edgeStyle=none;html=1;exitX=1;exitY=0;exitDx=0;exitDy=0;entryX=0;entryY=1;entryDx=0;entryDy=0;strokeColor=#FFFFFF;fontColor=#FFFFFF;" parent="1" source="14" target="90" edge="1">
                    <mxGeometry relative="1" as="geometry">
                        <mxPoint x="471.48366778097306" y="578.3976336896951" as="targetPoint"/>
                    </mxGeometry>
                </mxCell>
                <mxCell id="73" style="edgeStyle=none;html=1;exitX=1;exitY=0.5;exitDx=0;exitDy=0;entryX=0.015;entryY=0.609;entryDx=0;entryDy=0;strokeColor=#FFFFFF;fontColor=#FFFFFF;entryPerimeter=0;" parent="1" source="14" target="91" edge="1">
                    <mxGeometry relative="1" as="geometry">
                        <mxPoint x="453" y="685" as="targetPoint"/>
                    </mxGeometry>
                </mxCell>
                <UserObject label="Gerer les comptes " lucidchartObjectId="Qs3E.Yv0j4xv" id="14">
                    <mxCell style="html=1;overflow=block;blockSpacing=1;whiteSpace=wrap;ellipse;fontSize=13;spacing=3.8;strokeColor=#3a414a;strokeOpacity=100;rounded=1;absoluteArcSize=1;arcSize=9;strokeWidth=0.8;" parent="1" vertex="1">
                        <mxGeometry x="273" y="640" width="120" height="90" as="geometry"/>
                    </mxCell>
                </UserObject>
                <UserObject label="Gerer les &#10;conteneurs" lucidchartObjectId="ut3EcajXTy5L" id="16">
                    <mxCell style="html=1;overflow=block;blockSpacing=1;whiteSpace=wrap;ellipse;fontSize=13;spacing=3.8;strokeColor=#3a414a;strokeOpacity=100;rounded=1;absoluteArcSize=1;arcSize=9;strokeWidth=0.8;" parent="1" vertex="1">
                        <mxGeometry x="540" y="970" width="120" height="90" as="geometry"/>
                    </mxCell>
                </UserObject>
                <UserObject label="Obtenir l'itenaire vers le conteneur" lucidchartObjectId="gB3EUjBpwjYz" id="28">
                    <mxCell style="html=1;overflow=block;blockSpacing=1;whiteSpace=wrap;ellipse;fontSize=13;spacing=3.8;strokeColor=#3a414a;strokeOpacity=100;rounded=1;absoluteArcSize=1;arcSize=9;strokeWidth=0.8;" parent="1" vertex="1">
                        <mxGeometry x="240" y="67.5" width="120" height="90" as="geometry"/>
                    </mxCell>
                </UserObject>
                <UserObject label="" lucidchartObjectId="gC3ElCvYkFj5" id="29">
                    <mxCell style="html=1;jettySize=18;whiteSpace=wrap;fontSize=13;strokeColor=#FFFFFF;strokeOpacity=100;dashed=1;fixDash=1;strokeWidth=0.8;rounded=1;arcSize=12;edgeStyle=orthogonalEdgeStyle;startArrow=none;endArrow=block;endFill=1;exitX=0.5;exitY=1.004;exitPerimeter=0;entryX=0.5;entryY=-0.004;entryPerimeter=0;" parent="1" source="28" target="6" edge="1">
                        <mxGeometry width="100" height="100" relative="1" as="geometry">
                            <Array as="points"/>
                        </mxGeometry>
                    </mxCell>
                </UserObject>
                <UserObject label="&lt;font color=&quot;#ffffff&quot;&gt;&amp;lt;&amp;lt;Extend&amp;gt;&amp;gt;&lt;/font&gt;" lucidchartObjectId="tC3EobLPDJGI" id="30">
                    <mxCell style="html=1;overflow=block;blockSpacing=1;whiteSpace=wrap;fontSize=16.7;fontColor=#3a414a;spacing=3.8;strokeOpacity=0;fillOpacity=0;rounded=1;absoluteArcSize=1;arcSize=9;fillColor=#ffffff;strokeWidth=0.8;strokeColor=#FFFFFF;" parent="1" vertex="1">
                        <mxGeometry x="140" y="157.5" width="180" height="45" as="geometry"/>
                    </mxCell>
                </UserObject>
                <UserObject label="Mise a jour du status du module" lucidchartObjectId="1D3EZL8RyKP." id="31">
                    <mxCell style="html=1;overflow=block;blockSpacing=1;whiteSpace=wrap;ellipse;fontSize=13;spacing=3.8;strokeColor=#3a414a;strokeOpacity=100;rounded=1;absoluteArcSize=1;arcSize=9;strokeWidth=0.8;" parent="1" vertex="1">
                        <mxGeometry x="540" y="67.5" width="120" height="90" as="geometry"/>
                    </mxCell>
                </UserObject>
                <UserObject label="" lucidchartObjectId="iE3EBb7bB~Uy" id="32">
                    <mxCell style="html=1;jettySize=18;whiteSpace=wrap;fontSize=13;strokeColor=#FFFFFF;strokeOpacity=100;dashed=1;fixDash=1;strokeWidth=0.8;rounded=1;arcSize=12;edgeStyle=orthogonalEdgeStyle;startArrow=block;startFill=1;endArrow=none;exitX=0.5;exitY=1.004;exitPerimeter=0;entryX=0.5;entryY=-0.004;entryPerimeter=0;" parent="1" source="31" target="7" edge="1">
                        <mxGeometry width="100" height="100" relative="1" as="geometry">
                            <Array as="points"/>
                        </mxGeometry>
                    </mxCell>
                </UserObject>
                <UserObject label="&lt;font color=&quot;#ffffff&quot;&gt;&amp;lt;&amp;lt;Include&amp;gt;&amp;gt;&lt;/font&gt;" lucidchartObjectId="nE3EhSZqyGho" id="33">
                    <mxCell style="html=1;overflow=block;blockSpacing=1;whiteSpace=wrap;fontSize=16.7;fontColor=#3a414a;spacing=3.8;strokeOpacity=0;fillOpacity=0;rounded=1;absoluteArcSize=1;arcSize=9;fillColor=#ffffff;strokeWidth=0.8;" parent="1" vertex="1">
                        <mxGeometry x="455" y="157.5" width="180" height="45" as="geometry"/>
                    </mxCell>
                </UserObject>
                <UserObject label="Gerer les modules de suivi" lucidchartObjectId="lJ3EfLL8hnal" id="35">
                    <mxCell style="html=1;overflow=block;blockSpacing=1;whiteSpace=wrap;ellipse;fontSize=13;spacing=3.8;strokeColor=#3a414a;strokeOpacity=100;rounded=1;absoluteArcSize=1;arcSize=9;strokeWidth=0.8;" parent="1" vertex="1">
                        <mxGeometry x="130" y="970" width="120" height="90" as="geometry"/>
                    </mxCell>
                </UserObject>
                <UserObject label="" lucidchartObjectId="MK3EvFUoFIWM" id="36">
                    <mxCell style="html=1;jettySize=18;whiteSpace=wrap;fontSize=13;strokeColor=#3a414a;strokeOpacity=100;strokeWidth=0.8;rounded=1;arcSize=12;edgeStyle=orthogonalEdgeStyle;startArrow=none;endArrow=none;" parent="1" edge="1">
                        <mxGeometry width="100" height="100" relative="1" as="geometry">
                            <Array as="points"/>
                            <mxPoint x="731" y="1186" as="sourcePoint"/>
                            <mxPoint x="731" y="1186" as="targetPoint"/>
                        </mxGeometry>
                    </mxCell>
                </UserObject>
                <UserObject label="" lucidchartObjectId="MK3Eyy~~2sTU" id="37">
                    <mxCell style="html=1;jettySize=18;whiteSpace=wrap;fontSize=13;strokeColor=#3a414a;strokeOpacity=100;strokeWidth=0.8;rounded=1;arcSize=12;edgeStyle=orthogonalEdgeStyle;startArrow=none;endArrow=none;" parent="1" edge="1">
                        <mxGeometry width="100" height="100" relative="1" as="geometry">
                            <Array as="points"/>
                            <mxPoint x="703" y="1181" as="sourcePoint"/>
                            <mxPoint x="703" y="1181" as="targetPoint"/>
                        </mxGeometry>
                    </mxCell>
                </UserObject>
                <UserObject label="Modifier un&#10;conteneur" lucidchartObjectId="MK3EMQoiQRjq" id="38">
                    <mxCell style="html=1;overflow=block;blockSpacing=1;whiteSpace=wrap;ellipse;fontSize=13;spacing=3.8;strokeColor=#3a414a;strokeOpacity=100;rounded=1;absoluteArcSize=1;arcSize=9;strokeWidth=0.8;" parent="1" vertex="1">
                        <mxGeometry x="540" y="1130" width="120" height="90" as="geometry"/>
                    </mxCell>
                </UserObject>
                <UserObject label="Mise a jour des modules" lucidchartObjectId="RL3ESfeg4YaG" id="39">
                    <mxCell style="html=1;overflow=block;blockSpacing=1;whiteSpace=wrap;ellipse;fontSize=13;spacing=3.8;strokeColor=#3a414a;strokeOpacity=100;rounded=1;absoluteArcSize=1;arcSize=9;strokeWidth=0.8;" parent="1" vertex="1">
                        <mxGeometry y="1125" width="120" height="90" as="geometry"/>
                    </mxCell>
                </UserObject>
                <UserObject label="Ajouter un module " lucidchartObjectId="YL3Ez1I1_p~L" id="40">
                    <mxCell style="html=1;overflow=block;blockSpacing=1;whiteSpace=wrap;ellipse;fontSize=13;spacing=3.8;strokeColor=#3a414a;strokeOpacity=100;rounded=1;absoluteArcSize=1;arcSize=9;strokeWidth=0.8;" parent="1" vertex="1">
                        <mxGeometry x="130" y="1125" width="120" height="90" as="geometry"/>
                    </mxCell>
                </UserObject>
                <UserObject label="Supprimer un module" lucidchartObjectId="6L3ExFdPh1DK" id="41">
                    <mxCell style="html=1;overflow=block;blockSpacing=1;whiteSpace=wrap;ellipse;fontSize=13;spacing=3.8;strokeColor=#3a414a;strokeOpacity=100;rounded=1;absoluteArcSize=1;arcSize=9;strokeWidth=0.8;" parent="1" vertex="1">
                        <mxGeometry x="260" y="1125" width="120" height="90" as="geometry"/>
                    </mxCell>
                </UserObject>
                <UserObject label="" lucidchartObjectId="vM3Ev39PZoX5" id="42">
                    <mxCell style="html=1;jettySize=18;whiteSpace=wrap;fontSize=13;strokeColor=#FFFFFF;strokeOpacity=100;strokeWidth=0.8;rounded=1;arcSize=12;edgeStyle=orthogonalEdgeStyle;startArrow=none;endArrow=block;endFill=1;exitX=-0.003;exitY=0.5;exitPerimeter=0;entryX=0.5;entryY=-0.004;entryPerimeter=0;" parent="1" source="35" target="39" edge="1">
                        <mxGeometry width="100" height="100" relative="1" as="geometry">
                            <Array as="points"/>
                        </mxGeometry>
                    </mxCell>
                </UserObject>
                <UserObject label="" lucidchartObjectId="-M3EV-qTaCMJ" id="43">
                    <mxCell style="html=1;jettySize=18;whiteSpace=wrap;fontSize=13;strokeColor=#FFFFFF;strokeOpacity=100;strokeWidth=0.8;rounded=1;arcSize=12;edgeStyle=orthogonalEdgeStyle;startArrow=none;endArrow=block;endFill=1;exitX=0.5;exitY=1.004;exitPerimeter=0;entryX=0.5;entryY=-0.004;entryPerimeter=0;" parent="1" source="35" target="40" edge="1">
                        <mxGeometry width="100" height="100" relative="1" as="geometry">
                            <Array as="points"/>
                        </mxGeometry>
                    </mxCell>
                </UserObject>
                <UserObject label="" lucidchartObjectId="bN3Ev4zFyg0E" id="44">
                    <mxCell style="html=1;jettySize=18;whiteSpace=wrap;fontSize=13;strokeColor=#FFFFFF;strokeOpacity=100;strokeWidth=0.8;rounded=1;arcSize=12;edgeStyle=orthogonalEdgeStyle;startArrow=none;endArrow=block;endFill=1;exitX=1.003;exitY=0.5;exitPerimeter=0;entryX=0.5;entryY=-0.004;entryPerimeter=0;" parent="1" source="35" target="41" edge="1">
                        <mxGeometry width="100" height="100" relative="1" as="geometry">
                            <Array as="points"/>
                        </mxGeometry>
                    </mxCell>
                </UserObject>
                <UserObject label="Ajouter un conteneur" lucidchartObjectId="UN3EBG~TBHV6" id="45">
                    <mxCell style="html=1;overflow=block;blockSpacing=1;whiteSpace=wrap;ellipse;fontSize=13;spacing=3.8;strokeColor=#3a414a;strokeOpacity=100;rounded=1;absoluteArcSize=1;arcSize=9;strokeWidth=0.8;" parent="1" vertex="1">
                        <mxGeometry x="400" y="1130" width="120" height="90" as="geometry"/>
                    </mxCell>
                </UserObject>
                <UserObject label="Suivre un conteneur" lucidchartObjectId="0N3EK4ooBrxR" id="46">
                    <mxCell style="html=1;overflow=block;blockSpacing=1;whiteSpace=wrap;ellipse;fontSize=13;spacing=3.8;strokeColor=#3a414a;strokeOpacity=100;rounded=1;absoluteArcSize=1;arcSize=9;strokeWidth=0.8;" parent="1" vertex="1">
                        <mxGeometry x="680" y="1130" width="120" height="90" as="geometry"/>
                    </mxCell>
                </UserObject>
                <UserObject label="" lucidchartObjectId="hO3E_wOQ~E2Z" id="47">
                    <mxCell style="html=1;jettySize=18;whiteSpace=wrap;fontSize=13;strokeColor=#FFFFFF;strokeOpacity=100;strokeWidth=0.8;rounded=1;arcSize=12;edgeStyle=orthogonalEdgeStyle;startArrow=none;endArrow=block;endFill=1;entryX=0.5;entryY=-0.004;entryPerimeter=0;" parent="1" target="45" edge="1">
                        <mxGeometry width="100" height="100" relative="1" as="geometry">
                            <Array as="points">
                                <mxPoint x="460" y="1020"/>
                            </Array>
                            <mxPoint x="540" y="1020" as="sourcePoint"/>
                        </mxGeometry>
                    </mxCell>
                </UserObject>
                <UserObject label="" lucidchartObjectId="lO3EKmMFLPSp" id="48">
                    <mxCell style="html=1;jettySize=18;whiteSpace=wrap;fontSize=13;strokeColor=#FFFFFF;strokeOpacity=100;strokeWidth=0.8;rounded=1;arcSize=12;edgeStyle=orthogonalEdgeStyle;startArrow=none;endArrow=block;endFill=1;entryX=0.5;entryY=-0.004;entryPerimeter=0;exitX=0.5;exitY=1;exitDx=0;exitDy=0;" parent="1" source="16" target="38" edge="1">
                        <mxGeometry width="100" height="100" relative="1" as="geometry">
                            <Array as="points"/>
                            <mxPoint x="635" y="1060" as="sourcePoint"/>
                        </mxGeometry>
                    </mxCell>
                </UserObject>
                <UserObject label="" lucidchartObjectId="MO3EX1veHTEm" id="49">
                    <mxCell style="html=1;jettySize=18;whiteSpace=wrap;fontSize=13;strokeColor=#FFFFFF;strokeOpacity=100;strokeWidth=0.8;rounded=1;arcSize=12;edgeStyle=orthogonalEdgeStyle;startArrow=none;endArrow=block;endFill=1;exitX=1;exitY=0.5;entryX=0.5;entryY=-0.004;entryPerimeter=0;exitDx=0;exitDy=0;" parent="1" source="16" target="46" edge="1">
                        <mxGeometry width="100" height="100" relative="1" as="geometry">
                            <Array as="points"/>
                        </mxGeometry>
                    </mxCell>
                </UserObject>
                <UserObject label="Assigner un module de suivie" lucidchartObjectId="SO3EaEz30Gya" id="50">
                    <mxCell style="html=1;overflow=block;blockSpacing=1;whiteSpace=wrap;ellipse;fontSize=13;spacing=3.8;strokeColor=#3a414a;strokeOpacity=100;rounded=1;absoluteArcSize=1;arcSize=9;strokeWidth=0.8;" parent="1" vertex="1">
                        <mxGeometry x="540" y="1310" width="120" height="90" as="geometry"/>
                    </mxCell>
                </UserObject>
                <UserObject label="Assigner un employee pour le suivie" lucidchartObjectId="0O3EFl4Ifva_" id="51">
                    <mxCell style="html=1;overflow=block;blockSpacing=1;whiteSpace=wrap;ellipse;fontSize=13;spacing=3.8;strokeColor=#3a414a;strokeOpacity=100;rounded=1;absoluteArcSize=1;arcSize=9;strokeWidth=0.8;" parent="1" vertex="1">
                        <mxGeometry x="695" y="1325" width="120" height="90" as="geometry"/>
                    </mxCell>
                </UserObject>
                <UserObject label="" lucidchartObjectId=".P3EbJyuraUW" id="52">
                    <mxCell style="html=1;jettySize=18;whiteSpace=wrap;fontSize=13;strokeColor=#FFFFFF;strokeOpacity=100;dashed=1;fixDash=1;strokeWidth=0.8;rounded=1;arcSize=12;edgeStyle=orthogonalEdgeStyle;startArrow=none;endArrow=block;endFill=1;exitX=1;exitY=0.5;entryX=0.5;entryY=-0.004;entryPerimeter=0;exitDx=0;exitDy=0;" parent="1" source="46" target="51" edge="1">
                        <mxGeometry width="100" height="100" relative="1" as="geometry">
                            <Array as="points"/>
                        </mxGeometry>
                    </mxCell>
                </UserObject>
                <UserObject label="" lucidchartObjectId="rQ3E2j2fn8e3" id="53">
                    <mxCell style="html=1;jettySize=18;whiteSpace=wrap;fontSize=13;strokeColor=#FFFFFF;strokeOpacity=100;dashed=1;fixDash=1;strokeWidth=0.8;rounded=1;arcSize=12;edgeStyle=orthogonalEdgeStyle;startArrow=none;endArrow=block;endFill=1;exitX=0.336;exitY=0.977;exitPerimeter=0;entryX=0.5;entryY=-0.004;entryPerimeter=0;" parent="1" source="46" target="50" edge="1">
                        <mxGeometry width="100" height="100" relative="1" as="geometry">
                            <Array as="points">
                                <mxPoint x="720" y="1260"/>
                                <mxPoint x="600" y="1260"/>
                            </Array>
                        </mxGeometry>
                    </mxCell>
                </UserObject>
                <UserObject label="&lt;font color=&quot;#ffffff&quot;&gt;&amp;lt;&amp;lt;Include&amp;gt;&amp;gt;&lt;/font&gt;" lucidchartObjectId="~Q3ERu0gk4cG" id="54">
                    <mxCell style="html=1;overflow=block;blockSpacing=1;whiteSpace=wrap;fontSize=16.7;fontColor=#3a414a;spacing=3.8;strokeOpacity=0;fillOpacity=0;rounded=1;absoluteArcSize=1;arcSize=9;fillColor=#ffffff;strokeWidth=0.8;" parent="1" vertex="1">
                        <mxGeometry x="570" y="1260" width="180" height="45" as="geometry"/>
                    </mxCell>
                </UserObject>
                <UserObject label="&lt;font color=&quot;#ffffff&quot;&gt;&amp;lt;&amp;lt;Include&amp;gt;&amp;gt;&lt;/font&gt;" lucidchartObjectId="YR3Ew.WpINF6" id="55">
                    <mxCell style="html=1;overflow=block;blockSpacing=1;whiteSpace=wrap;fontSize=16.7;fontColor=#3a414a;spacing=3.8;strokeOpacity=0;fillOpacity=0;rounded=1;absoluteArcSize=1;arcSize=9;fillColor=#ffffff;strokeWidth=0.8;" parent="1" vertex="1">
                        <mxGeometry x="680" y="1220" width="180" height="45" as="geometry"/>
                    </mxCell>
                </UserObject>
                <UserObject label="" lucidchartObjectId=".P3EbJyuraUW" id="68">
                    <mxCell style="html=1;jettySize=18;whiteSpace=wrap;fontSize=13;strokeColor=#FFFFFF;strokeOpacity=100;dashed=1;fixDash=1;strokeWidth=0.8;rounded=1;arcSize=12;edgeStyle=orthogonalEdgeStyle;startArrow=none;endArrow=block;endFill=1;" parent="1" edge="1">
                        <mxGeometry width="100" height="100" relative="1" as="geometry">
                            <Array as="points">
                                <mxPoint x="754.41" y="1440"/>
                                <mxPoint x="754.41" y="1440"/>
                            </Array>
                            <mxPoint x="754.8199999999999" y="1420" as="sourcePoint"/>
                            <mxPoint x="754.41" y="1490" as="targetPoint"/>
                        </mxGeometry>
                    </mxCell>
                </UserObject>
                <UserObject label="&lt;font color=&quot;#ffffff&quot;&gt;&amp;lt;&amp;lt;Include&amp;gt;&amp;gt;&lt;/font&gt;" lucidchartObjectId="YR3Ew.WpINF6" id="69">
                    <mxCell style="html=1;overflow=block;blockSpacing=1;whiteSpace=wrap;fontSize=16.7;fontColor=#3a414a;spacing=3.8;strokeOpacity=0;fillOpacity=0;rounded=1;absoluteArcSize=1;arcSize=9;fillColor=#ffffff;strokeWidth=0.8;" parent="1" vertex="1">
                        <mxGeometry x="610" y="1415" width="180" height="45" as="geometry"/>
                    </mxCell>
                </UserObject>
                <UserObject label="&lt;font color=&quot;#ffffff&quot;&gt;Administrateur&lt;/font&gt;" lucidchartObjectId="DuOlt.rtpj4f" id="79">
                    <mxCell style="html=1;overflow=block;blockSpacing=1;shape=umlActor;labelPosition=center;verticalLabelPosition=bottom;verticalAlign=top;whiteSpace=nowrap;fontSize=16.7;fontColor=#3a414a;spacing=0;strokeColor=#FFFFFF;strokeOpacity=100;rounded=1;absoluteArcSize=1;arcSize=9;strokeWidth=0.8;" parent="1" vertex="1">
                        <mxGeometry x="10" y="800" width="60" height="135" as="geometry"/>
                    </mxCell>
                </UserObject>
                <mxCell id="83" style="edgeStyle=none;html=1;entryX=0;entryY=0.5;entryDx=0;entryDy=0;strokeColor=#FFFFFF;fontColor=#FFFFFF;" parent="1" source="82" target="14" edge="1">
                    <mxGeometry relative="1" as="geometry">
                        <Array as="points">
                            <mxPoint x="190" y="685"/>
                        </Array>
                    </mxGeometry>
                </mxCell>
                <mxCell id="84" style="edgeStyle=none;html=1;exitX=0.5;exitY=1;exitDx=0;exitDy=0;entryX=0.5;entryY=0;entryDx=0;entryDy=0;strokeColor=#FFFFFF;fontColor=#FFFFFF;" parent="1" source="82" target="35" edge="1">
                    <mxGeometry relative="1" as="geometry"/>
                </mxCell>
                <mxCell id="85" style="edgeStyle=none;html=1;exitX=1;exitY=0.5;exitDx=0;exitDy=0;entryX=0.5;entryY=0;entryDx=0;entryDy=0;strokeColor=#FFFFFF;fontColor=#FFFFFF;" parent="1" source="82" target="16" edge="1">
                    <mxGeometry relative="1" as="geometry">
                        <Array as="points">
                            <mxPoint x="600" y="830"/>
                        </Array>
                    </mxGeometry>
                </mxCell>
                <UserObject label="S'authentifier" lucidchartObjectId="Qs3E.Yv0j4xv" id="82">
                    <mxCell style="html=1;overflow=block;blockSpacing=1;whiteSpace=wrap;ellipse;fontSize=13;spacing=3.8;strokeColor=#3a414a;strokeOpacity=100;rounded=1;absoluteArcSize=1;arcSize=9;strokeWidth=0.8;" parent="1" vertex="1">
                        <mxGeometry x="130" y="780" width="120" height="100" as="geometry"/>
                    </mxCell>
                </UserObject>
                <mxCell id="88" style="edgeStyle=none;html=1;exitX=1;exitY=0.5;exitDx=0;exitDy=0;entryX=0.5;entryY=1;entryDx=0;entryDy=0;strokeColor=#FFFFFF;fontColor=#FFFFFF;" parent="1" source="86" target="5" edge="1">
                    <mxGeometry relative="1" as="geometry">
                        <Array as="points">
                            <mxPoint x="450" y="428"/>
                        </Array>
                    </mxGeometry>
                </mxCell>
                <UserObject label="S'authentifier" lucidchartObjectId="Qs3E.Yv0j4xv" id="86">
                    <mxCell style="html=1;overflow=block;blockSpacing=1;whiteSpace=wrap;ellipse;fontSize=13;spacing=3.8;strokeColor=#3a414a;strokeOpacity=100;rounded=1;absoluteArcSize=1;arcSize=9;strokeWidth=0.8;" parent="1" vertex="1">
                        <mxGeometry x="170" y="382.5" width="120" height="90" as="geometry"/>
                    </mxCell>
                </UserObject>
                <UserObject label="&lt;span style=&quot;color: rgb(255, 255, 255); font-size: 12px;&quot;&gt;Ajouter Un compte Employee&lt;/span&gt;" lucidchartObjectId="Qs3E.Yv0j4xv" id="89">
                    <mxCell style="html=1;overflow=block;blockSpacing=1;whiteSpace=wrap;ellipse;fontSize=13;spacing=3.8;strokeColor=#3a414a;strokeOpacity=100;rounded=1;absoluteArcSize=1;arcSize=9;strokeWidth=0.8;" parent="1" vertex="1">
                        <mxGeometry x="273" y="480" width="120" height="90" as="geometry"/>
                    </mxCell>
                </UserObject>
                <UserObject label="&lt;span style=&quot;color: rgb(255, 255, 255); font-size: 12px;&quot;&gt;Modifier Un compte Employee&lt;/span&gt;" lucidchartObjectId="Qs3E.Yv0j4xv" id="90">
                    <mxCell style="html=1;overflow=block;blockSpacing=1;whiteSpace=wrap;ellipse;fontSize=13;spacing=3.8;strokeColor=#3a414a;strokeOpacity=100;rounded=1;absoluteArcSize=1;arcSize=9;strokeWidth=0.8;" parent="1" vertex="1">
                        <mxGeometry x="458" y="490" width="120" height="90" as="geometry"/>
                    </mxCell>
                </UserObject>
                <UserObject label="&lt;span style=&quot;font-size: 12px;&quot;&gt;&lt;font color=&quot;#ffffff&quot;&gt;Supprimer Un compte Employee&lt;/font&gt;&lt;/span&gt;" lucidchartObjectId="Qs3E.Yv0j4xv" id="91">
                    <mxCell style="html=1;overflow=block;blockSpacing=1;whiteSpace=wrap;ellipse;fontSize=13;spacing=3.8;strokeColor=#3a414a;strokeOpacity=100;rounded=1;absoluteArcSize=1;arcSize=9;strokeWidth=0.8;" parent="1" vertex="1">
                        <mxGeometry x="458" y="630" width="120" height="90" as="geometry"/>
                    </mxCell>
                </UserObject>
                <UserObject label="&lt;span style=&quot;font-size: 12px;&quot;&gt;&lt;font color=&quot;#ffffff&quot;&gt;Rechercher&amp;nbsp; Compte Employee&lt;/font&gt;&lt;/span&gt;" lucidchartObjectId="Qs3E.Yv0j4xv" id="92">
                    <mxCell style="html=1;overflow=block;blockSpacing=1;whiteSpace=wrap;ellipse;fontSize=13;spacing=3.8;strokeColor=#3a414a;strokeOpacity=100;rounded=1;absoluteArcSize=1;arcSize=9;strokeWidth=0.8;" parent="1" vertex="1">
                        <mxGeometry x="695" y="1490" width="120" height="90" as="geometry"/>
                    </mxCell>
                </UserObject>
                <UserObject label="&lt;font color=&quot;#ffffff&quot;&gt;&lt;span style=&quot;font-size: 12px;&quot;&gt;Rechercher Employe&lt;/span&gt;&lt;/font&gt;" lucidchartObjectId="Qs3E.Yv0j4xv" id="93">
                    <mxCell style="html=1;overflow=block;blockSpacing=1;whiteSpace=wrap;ellipse;fontSize=13;spacing=3.8;strokeColor=#3a414a;strokeOpacity=100;rounded=1;absoluteArcSize=1;arcSize=9;strokeWidth=0.8;" vertex="1" parent="1">
                        <mxGeometry x="680" y="560" width="120" height="90" as="geometry"/>
                    </mxCell>
                </UserObject>
                <UserObject label="&lt;font color=&quot;#ffffff&quot;&gt;&amp;lt;&amp;lt;Include&amp;gt;&amp;gt;&lt;/font&gt;" lucidchartObjectId="~Q3ERu0gk4cG" id="95">
                    <mxCell style="html=1;overflow=block;blockSpacing=1;whiteSpace=wrap;fontSize=16.7;fontColor=#3a414a;spacing=3.8;strokeOpacity=0;fillOpacity=0;rounded=1;absoluteArcSize=1;arcSize=9;fillColor=#ffffff;strokeWidth=0.8;" vertex="1" parent="1">
                        <mxGeometry x="560" y="675" width="180" height="45" as="geometry"/>
                    </mxCell>
                </UserObject>
                <UserObject label="&lt;font color=&quot;#ffffff&quot;&gt;&amp;lt;&amp;lt;Include&amp;gt;&amp;gt;&lt;/font&gt;" lucidchartObjectId="~Q3ERu0gk4cG" id="96">
                    <mxCell style="html=1;overflow=block;blockSpacing=1;whiteSpace=wrap;fontSize=16.7;fontColor=#3a414a;spacing=3.8;strokeOpacity=0;fillOpacity=0;rounded=1;absoluteArcSize=1;arcSize=9;fillColor=#ffffff;strokeWidth=0.8;" vertex="1" parent="1">
                        <mxGeometry x="560" y="490" width="180" height="45" as="geometry"/>
                    </mxCell>
                </UserObject>
                <UserObject label="" lucidchartObjectId=".P3EbJyuraUW" id="98">
                    <mxCell style="html=1;jettySize=18;whiteSpace=wrap;fontSize=13;strokeColor=#FFFFFF;strokeOpacity=100;dashed=1;fixDash=1;strokeWidth=0.8;rounded=1;arcSize=12;edgeStyle=orthogonalEdgeStyle;startArrow=none;endArrow=block;endFill=1;exitX=1;exitY=0.5;entryX=0.5;entryY=0;exitDx=0;exitDy=0;entryDx=0;entryDy=0;" edge="1" parent="1" source="90" target="93">
                        <mxGeometry width="100" height="100" relative="1" as="geometry">
                            <Array as="points"/>
                            <mxPoint x="835" y="700" as="sourcePoint"/>
                            <mxPoint x="790" y="849.6400000000001" as="targetPoint"/>
                        </mxGeometry>
                    </mxCell>
                </UserObject>
                <UserObject label="" lucidchartObjectId=".P3EbJyuraUW" id="100">
                    <mxCell style="html=1;jettySize=18;whiteSpace=wrap;fontSize=13;strokeColor=#FFFFFF;strokeOpacity=100;dashed=1;fixDash=1;strokeWidth=0.8;rounded=1;arcSize=12;edgeStyle=orthogonalEdgeStyle;startArrow=none;endArrow=block;endFill=1;exitX=1;exitY=0.5;entryX=0.5;entryY=1;exitDx=0;exitDy=0;entryDx=0;entryDy=0;" edge="1" parent="1" source="91" target="93">
                        <mxGeometry width="100" height="100" relative="1" as="geometry">
                            <Array as="points"/>
                            <mxPoint x="695" y="770" as="sourcePoint"/>
                            <mxPoint x="650" y="919.6400000000001" as="targetPoint"/>
                        </mxGeometry>
                    </mxCell>
                </UserObject>
            </root>
        </mxGraphModel>
    </diagram>
</mxfile>